<svg xmlns="http://www.w3.org/2000/svg" width="84" height="84" viewBox="0 0 84 84" fill="none">
  <g filter="url(#filter0_ddi_8_5696)">
    <path d="M49.7224 42.2775L58.806 45.5807C59.1226 45.6959 59.3332 45.9966 59.3332 46.3333C59.3332 46.6701 59.1226 46.9708 58.8062 47.0859L49.7224 50.3892L46.4192 59.4728C46.3041 59.7893 46.0034 59.9999 45.6666 59.9999C45.3298 59.9999 45.0291 59.7893 44.914 59.473L41.6108 50.3892L32.5272 47.0859C32.2106 46.9708 32 46.6701 32 46.3333C32 45.9966 32.2106 45.6959 32.5272 45.5807L41.6108 42.2775L44.914 33.1939C45.0291 32.8774 45.3298 32.6667 45.6666 32.6667C46.0034 32.6667 46.3041 32.8774 46.4192 33.1939L49.7224 42.2775Z" fill="#3D8AFF"/>
    <path d="M49.7224 42.2775L58.806 45.5807C59.1226 45.6959 59.3332 45.9966 59.3332 46.3333C59.3332 46.6701 59.1226 46.9708 58.8062 47.0859L49.7224 50.3892L46.4192 59.4728C46.3041 59.7893 46.0034 59.9999 45.6666 59.9999C45.3298 59.9999 45.0291 59.7893 44.914 59.473L41.6108 50.3892L32.5272 47.0859C32.2106 46.9708 32 46.6701 32 46.3333C32 45.9966 32.2106 45.6959 32.5272 45.5807L41.6108 42.2775L44.914 33.1939C45.0291 32.8774 45.3298 32.6667 45.6666 32.6667C46.0034 32.6667 46.3041 32.8774 46.4192 33.1939L49.7224 42.2775Z" fill="url(#paint0_radial_8_5696)" fill-opacity="0.36"/>
    <path d="M53.1603 41.8233L54.1457 38.8669C54.2418 38.5792 54.1665 38.262 53.9526 38.0474C53.723 37.8184 53.4006 37.765 53.133 37.8543L50.1766 38.8396L50.972 41.028L53.1603 41.8233Z" fill="#3D8AFF"/>
    <path d="M53.1603 41.8233L54.1457 38.8669C54.2418 38.5792 54.1665 38.262 53.9526 38.0474C53.723 37.8184 53.4006 37.765 53.133 37.8543L50.1766 38.8396L50.972 41.028L53.1603 41.8233Z" fill="url(#paint1_radial_8_5696)" fill-opacity="0.36"/>
    <path d="M40.3612 41.028L38.1729 41.8233L37.1875 38.8669C37.0914 38.5792 37.1667 38.262 37.3806 38.0474C37.6086 37.8201 37.9312 37.7644 38.2002 37.8543L41.1566 38.8396L40.3612 41.028Z" fill="#3D8AFF"/>
    <path d="M40.3612 41.028L38.1729 41.8233L37.1875 38.8669C37.0914 38.5792 37.1667 38.262 37.3806 38.0474C37.6086 37.8201 37.9312 37.7644 38.2002 37.8543L41.1566 38.8396L40.3612 41.028Z" fill="url(#paint2_radial_8_5696)" fill-opacity="0.36"/>
    <path d="M38.1729 50.8434L37.1875 53.7998C37.0914 54.0875 37.1667 54.4047 37.3806 54.6193C37.6086 54.8466 37.9312 54.9023 38.2002 54.8124L41.1566 53.8271L40.3612 51.6387L38.1729 50.8434Z" fill="#3D8AFF"/>
    <path d="M38.1729 50.8434L37.1875 53.7998C37.0914 54.0875 37.1667 54.4047 37.3806 54.6193C37.6086 54.8466 37.9312 54.9023 38.2002 54.8124L41.1566 53.8271L40.3612 51.6387L38.1729 50.8434Z" fill="url(#paint3_radial_8_5696)" fill-opacity="0.36"/>
    <path d="M53.1603 50.8434L50.972 51.6387L50.1766 53.8271L53.133 54.8124C53.4006 54.9017 53.723 54.8483 53.9526 54.6193C54.1665 54.4047 54.2418 54.0875 54.1457 53.7998L53.1603 50.8434Z" fill="#3D8AFF"/>
    <path d="M53.1603 50.8434L50.972 51.6387L50.1766 53.8271L53.133 54.8124C53.4006 54.9017 53.723 54.8483 53.9526 54.6193C54.1665 54.4047 54.2418 54.0875 54.1457 53.7998L53.1603 50.8434Z" fill="url(#paint4_radial_8_5696)" fill-opacity="0.36"/>
  </g>
  <path d="M49.4352 46.1197L47.3702 44.8026L46.0531 41.1807C46.0072 41.0544 45.8873 40.9705 45.753 40.9705C45.6187 40.9705 45.4988 41.0544 45.4529 41.1807L44.1358 44.8026L42.0708 46.1197C41.9446 46.1656 41.8606 46.2855 41.8606 46.4198C41.8606 46.5541 41.9446 46.674 42.0708 46.7199L44.1358 48.037L45.4529 51.659C45.4988 51.7852 45.6187 51.8691 45.753 51.8691C45.8873 51.8691 46.0072 51.7852 46.0531 51.6589L47.3702 48.037L49.4353 46.7199C49.5614 46.674 49.6454 46.5541 49.6454 46.4198C49.6454 46.2855 49.5614 46.1656 49.4352 46.1197Z" fill="black" fill-opacity="0.56"/>
  <defs>
    <filter id="filter0_ddi_8_5696" x="0" y="0.666748" width="91.3332" height="91.3332" filterUnits="userSpaceOnUse" color-interpolation-filters="sRGB">
      <feFlood flood-opacity="0" result="BackgroundImageFix"/>
      <feColorMatrix in="SourceAlpha" type="matrix" values="0 0 0 0 0 0 0 0 0 0 0 0 0 0 0 0 0 0 127 0" result="hardAlpha"/>
      <feOffset dy="2"/>
      <feGaussianBlur stdDeviation="1"/>
      <feComposite in2="hardAlpha" operator="out"/>
      <feColorMatrix type="matrix" values="0 0 0 0 0 0 0 0 0 0 0 0 0 0 0 0 0 0 0.12 0"/>
      <feBlend mode="normal" in2="BackgroundImageFix" result="effect1_dropShadow_8_5696"/>
      <feColorMatrix in="SourceAlpha" type="matrix" values="0 0 0 0 0 0 0 0 0 0 0 0 0 0 0 0 0 0 127 0" result="hardAlpha"/>
      <feOffset/>
      <feGaussianBlur stdDeviation="16"/>
      <feComposite in2="hardAlpha" operator="out"/>
      <feColorMatrix type="matrix" values="0 0 0 0 0.313725 0 0 0 0 0.588235 0 0 0 0 1 0 0 0 0.56 0"/>
      <feBlend mode="normal" in2="effect1_dropShadow_8_5696" result="effect2_dropShadow_8_5696"/>
      <feBlend mode="normal" in="SourceGraphic" in2="effect2_dropShadow_8_5696" result="shape"/>
      <feColorMatrix in="SourceAlpha" type="matrix" values="0 0 0 0 0 0 0 0 0 0 0 0 0 0 0 0 0 0 127 0" result="hardAlpha"/>
      <feOffset dy="1"/>
      <feComposite in2="hardAlpha" operator="arithmetic" k2="-1" k3="1"/>
      <feColorMatrix type="matrix" values="0 0 0 0 0.6125 0 0 0 0 0.766302 0 0 0 0 1 0 0 0 1 0"/>
      <feBlend mode="normal" in2="shape" result="effect3_innerShadow_8_5696"/>
    </filter>
    <radialGradient id="paint0_radial_8_5696" cx="0" cy="0" r="1" gradientUnits="userSpaceOnUse" gradientTransform="translate(45.6666 32.6667) rotate(90) scale(27.3332)">
      <stop stop-color="#EFF6FF" stop-opacity="0.881019"/>
      <stop offset="1" stop-color="#79B7FF" stop-opacity="0"/>
    </radialGradient>
    <radialGradient id="paint1_radial_8_5696" cx="0" cy="0" r="1" gradientUnits="userSpaceOnUse" gradientTransform="translate(45.6666 32.6667) rotate(90) scale(27.3332)">
      <stop stop-color="#EFF6FF" stop-opacity="0.881019"/>
      <stop offset="1" stop-color="#79B7FF" stop-opacity="0"/>
    </radialGradient>
    <radialGradient id="paint2_radial_8_5696" cx="0" cy="0" r="1" gradientUnits="userSpaceOnUse" gradientTransform="translate(45.6666 32.6667) rotate(90) scale(27.3332)">
      <stop stop-color="#EFF6FF" stop-opacity="0.881019"/>
      <stop offset="1" stop-color="#79B7FF" stop-opacity="0"/>
    </radialGradient>
    <radialGradient id="paint3_radial_8_5696" cx="0" cy="0" r="1" gradientUnits="userSpaceOnUse" gradientTransform="translate(45.6666 32.6667) rotate(90) scale(27.3332)">
      <stop stop-color="#EFF6FF" stop-opacity="0.881019"/>
      <stop offset="1" stop-color="#79B7FF" stop-opacity="0"/>
    </radialGradient>
    <radialGradient id="paint4_radial_8_5696" cx="0" cy="0" r="1" gradientUnits="userSpaceOnUse" gradientTransform="translate(45.6666 32.6667) rotate(90) scale(27.3332)">
      <stop stop-color="#EFF6FF" stop-opacity="0.881019"/>
      <stop offset="1" stop-color="#79B7FF" stop-opacity="0"/>
    </radialGradient>
  </defs>
</svg>